# xmcd CD database file
#
# Track frame offsets:
#	150
#	28224
#	51097
#	74821
#	96358
#	123641
#	141610
#	156122
#	173127
#	192343
#	206143
#
# Disc length: 2945 seconds
#
# Revision: 0
# Processed by: cddbd v1.5.2PL0 Copyright (c) Steve Scherf et al.
# Submitted via: CDex 1.51
#
DISCID=b30b7f0b
DTITLE=Astor Piazzolla/George Gershwin - Astor Piazzolla/George Gershwin
DYEAR=2001
DGENRE=Jazz
TTITLE0=Libertango
TTITLE1=Oblivion
TTITLE2=Buenos Aires hora 0
TTITLE3=Milonga en ay menor
TTITLE4=Novitango
TTITLE5=My Man's Gone Now
TTITLE6=Tempo di Blues
TTITLE7=Bess, You Is My Woman
TTITLE8=Summertime And a Woman Is Sometime Thing
TTITLE9=It Ain't Necessarily So
TTITLE10=Preludium nr 2
EXTD=YEAR: 2001
EXTT0=
EXTT1=
EXTT2=
EXTT3=
EXTT4=
EXTT5=
EXTT6=
EXTT7=
EXTT8=
EXTT9=
EXTT10=
PLAYORDER=
